# xmcd CD database file
#
# Track frame offsets:
#	150
#	31242
#	60622
#	73515
#	100152
#	116897
#	135724
#	163244
#	204614
#
# Disc length: 3433 seconds
#
# Revision: 0
# Processed by: cddbd v1.5.1PL0 Copyright (c) Steve Scherf et al.
# Submitted via: CDex 1.51
#
DISCID=820d6709
DTITLE=Kitaro  - World Of Kita [Vol02][Silent Prayer]
DYEAR=2000
DGENRE=New Age
TTITLE0=Thinking Of You
TTITLE1=Koi
TTITLE2=A Drop Of Silence
TTITLE3=Nageki
TTITLE4=Peace
TTITLE5=Tencu
TTITLE6=Cosmic Love
TTITLE7=Island Of Life
TTITLE8=Heaven and Earth
EXTD=YEAR: 2000
EXTT0=
EXTT1=
EXTT2=
EXTT3=
EXTT4=
EXTT5=
EXTT6=
EXTT7=
EXTT8=
PLAYORDER=
